<?xml version="1.0" encoding="iso-8859-1"?>
<!-- Generator: Adobe Illustrator 19.0.0, SVG Export Plug-In . SVG Version: 6.00 Build 0)  -->
<svg version="1.1" id="Capa_1" xmlns="http://www.w3.org/2000/svg" xmlns:xlink="http://www.w3.org/1999/xlink" x="0px" y="0px"
	 viewBox="0 0 512 512" style="enable-background:new 0 0 512 512;" xml:space="preserve">
<circle style="fill:#FDD36E;" cx="256" cy="256" r="256"/>
<path style="fill:#445280;" d="M417.398,451.25v3.469C373.366,490.538,317.192,512,256.003,512
	c-61.356,0-117.666-21.588-161.761-57.584v-3.166c0-52.046,42.193-94.229,94.229-94.229h134.698
	C375.205,357.021,417.398,399.203,417.398,451.25z"/>
<path style="fill:#303C69;" d="M230.32,357.021c-52.036,0-94.229,42.183-94.229,94.229v30.971
	c-14.879-7.899-28.891-17.23-41.848-27.805v-3.166c0-52.046,42.193-94.229,94.229-94.229L230.32,357.021L230.32,357.021z"/>
<path style="fill:#98A7B5;" d="M134.328,225.065L134.328,225.065c-2.867,0-5.192-2.325-5.192-5.192v-3.634
	c0-2.867,2.325-5.192,5.192-5.192l0,0c2.867,0,5.192,2.325,5.192,5.192v3.634C139.52,222.74,137.195,225.065,134.328,225.065z"/>
<path style="fill:#445280;" d="M310.343,326.495v37.011c0,0.233,0,0.465-0.012,0.698c-0.372,28.839-23.853,52.099-52.773,52.099
	c-10.392,0-20.098-2.999-28.27-8.195c-3.289-2.08-6.324-4.521-9.067-7.265c-9.009-9.009-14.774-21.261-15.402-34.848
	c-0.034-0.825-0.059-1.651-0.059-2.488v-37.011L310.343,326.495L310.343,326.495z"/>
<path style="fill:#303C69;" d="M229.289,326.495h-24.527v37.011c0,0.837,0.023,1.662,0.059,2.488
	c0.628,13.589,6.393,25.84,15.402,34.848c2.743,2.743,5.777,5.184,9.067,7.265v-14.44c0-9.494,8.023-17.135,17.488-16.415
	c2.982,0.227,5.997,0.343,9.037,0.343c19.427,0,37.765-4.718,53.916-13.078c0.197-0.325,0.416-0.685,0.612-1.01v-37.011
	L229.289,326.495L229.289,326.495z"/>
<g>
	<circle style="fill:#445280;" cx="153.464" cy="212.198" r="32.632"/>
	<circle style="fill:#445280;" cx="358.17" cy="212.198" r="32.632"/>
</g>
<path style="fill:#F9D4C1;" d="M255.819,349.41c-61.612,0-111.737-50.125-111.737-111.737V144.3
	c0-61.612,50.125-111.737,111.737-111.737S367.557,82.688,367.557,144.3v93.372C367.557,299.285,317.432,349.41,255.819,349.41z"/>
<g>
	<path style="fill:#E5BDAB;" d="M322.873,168.746l-44.181,16.501c-3.128,1.168-4.717,4.651-3.548,7.779l0,0
		c1.168,3.128,4.651,4.717,7.779,3.548l44.181-16.501c3.128-1.168,4.717-4.651,3.548-7.779l0,0
		C329.485,169.166,326.002,167.577,322.873,168.746z"/>
	<path style="fill:#E5BDAB;" d="M188.768,168.746l44.181,16.501c3.128,1.168,4.717,4.651,3.548,7.779l0,0
		c-1.168,3.128-4.651,4.717-7.779,3.548l-44.181-16.501c-3.128-1.168-4.717-4.651-3.548-7.779l0,0
		C182.157,169.166,185.64,167.577,188.768,168.746z"/>
	<path style="fill:#E5BDAB;" d="M238.731,209.023v59.019h6.003c7.711,0,13.962-6.252,13.962-13.962v-62.779"/>
</g>
<path style="fill:#445280;" d="M262.046,26.91c-2.057-0.104-4.126-0.163-6.219-0.163c-32.466,0-61.852,13.158-83.124,34.43
	s-34.43,50.669-34.43,83.124v93.375c0,64.921,52.634,117.542,117.554,117.542c4.056,0,8.055-0.197,12.008-0.604
	c27.653-2.813,52.494-15.216,71.104-33.825c21.272-21.261,34.43-50.646,34.43-83.111V144.3
	C373.368,81.473,324.071,30.153,262.046,26.91z M321.607,252.008c-24.05,0-43.556-19.494-43.556-43.556
	c0-11.205,3.08-19.087,8.799-24.294c6.567-5.986,16.599-8.474,29.456-8.474c8.962,0,16.692,3.557,22.853,9.264
	c10.38,9.602,16.343,25.294,16.343,40.394C355.502,249.393,345.669,252.008,321.607,252.008z M255.815,339.782
	c-22.946,0-41.556-23.411-41.556-52.273c0-18.575,12.53-34.872,24.468-44.148c6.614-5.149,13.065-8.125,17.087-8.125
	c0.86,0,1.837,0.127,2.883,0.383c13.007,3.15,38.685,25.178,38.685,51.89C297.382,316.371,278.772,339.782,255.815,339.782z
	 M156.139,225.344c0-9.101,2.162-18.412,6.161-26.48c3.405-6.905,8.16-12.902,14.041-17.064c5.428-3.836,11.81-6.115,18.993-6.115
	c16.599,0,28.502,4.149,34.29,14.623c2.604,4.696,3.964,10.682,3.964,18.145c0,24.062-19.505,43.556-43.556,43.556
	c-13.135,0-22.027-0.778-27.398-5.394C158.162,242.767,156.139,236.259,156.139,225.344z"/>
<path style="fill:#E5BDAB;" d="M226.537,206.6c-0.655,5.418-5.437,9.395-10.894,9.395h-28.36c-2.962,0-5.643-1.197-7.587-3.141
	c-2.224-2.231-3.482-5.436-3.061-8.919c0.655-5.418,5.437-9.395,10.894-9.395h28.36c2.962,0,5.643,1.197,7.587,3.141
	C225.701,199.911,226.958,203.116,226.537,206.6z"/>
<path style="fill:#FFFFFF;" d="M226.537,214.123c-0.655,5.418-5.437,9.395-10.894,9.395h-28.36c-2.962,0-5.643-1.197-7.587-3.141
	c-2.224-2.231-3.482-5.436-3.061-8.919c0.655-5.418,5.437-9.395,10.894-9.395h28.36c2.962,0,5.643,1.197,7.587,3.141
	C225.701,207.434,226.958,210.638,226.537,214.123z"/>
<path style="fill:#E5BDAB;" d="M324.356,194.54h-28.605c-5.925,0-10.727,4.802-10.727,10.727l0,0
	c0,5.925,4.802,10.727,10.727,10.727h28.605c5.925,0,10.727-4.802,10.727-10.727l0,0C335.083,199.342,330.281,194.54,324.356,194.54
	z"/>
<path style="fill:#FFFFFF;" d="M324.356,202.062h-28.605c-5.925,0-10.727,4.802-10.727,10.727l0,0
	c0,5.925,4.802,10.727,10.727,10.727h28.605c5.925,0,10.727-4.802,10.727-10.727l0,0
	C335.083,206.865,330.281,202.062,324.356,202.062z"/>
<path style="fill:#5E6370;" d="M215.855,209.25c0,7.879-6.389,14.268-14.268,14.268c-7.879,0-14.268-6.389-14.268-14.268
	c0-2.623,0.709-5.078,1.949-7.188h24.638C215.146,204.172,215.855,206.628,215.855,209.25z"/>
<g>
	<circle style="fill:#98A7B5;" cx="206.639" cy="209.032" r="5.775"/>
	<circle style="fill:#98A7B5;" cx="196.023" cy="216.388" r="3.377"/>
</g>
<path style="fill:#5E6370;" d="M324.322,209.25c0,7.879-6.389,14.268-14.268,14.268c-7.879,0-14.268-6.389-14.268-14.268
	c0-2.623,0.709-5.078,1.949-7.188h24.638C323.612,204.172,324.322,206.628,324.322,209.25z"/>
<g>
	<circle style="fill:#98A7B5;" cx="315.11" cy="209.032" r="5.775"/>
	<circle style="fill:#98A7B5;" cx="304.494" cy="216.388" r="3.377"/>
</g>
<g>
	<path style="fill:#E5BDAB;" d="M275.785,285.326h-39.931c-3.621,0-6.556,2.935-6.556,6.556l0,0c0,3.621,2.935,6.556,6.556,6.556
		h39.93c3.621,0,6.556-2.935,6.556-6.556l0,0C282.341,288.261,279.406,285.326,275.785,285.326z"/>
	<path style="fill:#E5BDAB;" d="M261.349,306.707h-11.058c-2.819,0-5.105,2.286-5.105,5.105l0,0c0,2.819,2.285,5.105,5.105,5.105
		h11.058c2.819,0,5.105-2.286,5.105-5.105l0,0C266.454,308.992,264.168,306.707,261.349,306.707z"/>
</g>
<g>
	<path style="fill:#303C69;" d="M267.835,354.614c-3.952,0.406-7.951,0.604-12.008,0.604c-64.921,0-117.554-52.622-117.554-117.542
		V144.3c0-32.455,13.158-61.852,34.43-83.124s50.658-34.43,83.124-34.43c2.092,0,4.162,0.059,6.219,0.163
		c1.941,0.104,3.87,0.256,5.789,0.453C208.552,33.372,162.3,83.437,162.3,144.3v54.564c-3.999,8.067-6.161,17.378-6.161,26.48
		c0,10.915,2.023,17.425,6.498,21.272C166.903,303.376,211.481,348.906,267.835,354.614z"/>
	<path style="fill:#303C69;" d="M260.069,229.969c-1.488-0.36-2.917-0.546-4.255-0.546c-5.498,0-13.019,3.405-20.656,9.346
		c-6.265,4.87-26.712,22.783-26.712,48.739c0,32.024,21.249,58.085,47.368,58.085s47.38-26.061,47.38-58.085
		C303.194,257.042,274.704,233.515,260.069,229.969z M255.815,339.782c-22.946,0-41.556-23.411-41.556-52.273
		c0-18.575,12.53-34.872,24.468-44.148c6.614-5.149,13.065-8.125,17.087-8.125c0.86,0,1.837,0.127,2.883,0.383
		c13.007,3.15,38.685,25.178,38.685,51.89C297.382,316.371,278.772,339.782,255.815,339.782z"/>
	<path style="fill:#303C69;" d="M343.111,180.684c-7.637-7.068-16.901-10.811-26.805-10.811c-15.076,0-25.991,3.266-33.373,9.985
		c-7.091,6.463-10.695,16.087-10.695,28.595c0,27.224,22.143,49.367,49.367,49.367c23.248,0,39.707-2.325,39.707-32.478
		C361.314,208.187,354.34,191.075,343.111,180.684z M321.607,252.008c-24.05,0-43.556-19.494-43.556-43.556
		c0-11.205,3.08-19.087,8.799-24.294c6.567-5.986,16.599-8.474,29.456-8.474c8.962,0,16.692,3.557,22.853,9.264
		c10.38,9.602,16.343,25.294,16.343,40.394C355.502,249.393,345.669,252.008,321.607,252.008z"/>
	<path style="fill:#303C69;" d="M234.706,187.495c-6.544-11.856-19.424-17.622-39.371-17.622c-8.091,0-15.611,2.418-22.352,7.184
		c-6.44,4.557-11.938,11.205-15.89,19.238c-4.359,8.788-6.765,19.11-6.765,29.048c0,12.693,2.627,20.61,8.52,25.677
		c6.649,5.719,16.087,6.8,31.187,6.8c27.224,0,49.367-22.143,49.367-49.367C239.402,200.154,237.821,193.11,234.706,187.495z
		 M190.035,252.008c-13.135,0-22.027-0.778-27.398-5.394c-4.475-3.847-6.498-10.357-6.498-21.272c0-9.101,2.162-18.412,6.161-26.48
		c3.405-6.905,8.16-12.902,14.041-17.064c5.428-3.836,11.81-6.115,18.993-6.115c16.599,0,28.502,4.149,34.29,14.623
		c2.604,4.696,3.964,10.682,3.964,18.145C233.59,232.516,214.085,252.008,190.035,252.008z"/>
</g>
<g>
</g>
<g>
</g>
<g>
</g>
<g>
</g>
<g>
</g>
<g>
</g>
<g>
</g>
<g>
</g>
<g>
</g>
<g>
</g>
<g>
</g>
<g>
</g>
<g>
</g>
<g>
</g>
<g>
</g>
</svg>
